<!DOCTYPE svg PUBLIC "-//W3C//DTD SVG 1.1//EN" "http://www.w3.org/Graphics/SVG/1.1/DTD/svg11.dtd">
<!-- Uploaded to: SVG Repo, www.svgrepo.com, Transformed by: SVG Repo Mixer Tools -->
<svg height="800px" width="800px" version="1.1" id="Layer_1" xmlns="http://www.w3.org/2000/svg" xmlns:xlink="http://www.w3.org/1999/xlink" viewBox="-51.2 -51.2 614.40 614.40" xml:space="preserve" fill="#000000">
<g id="SVGRepo_bgCarrier" stroke-width="0" transform="translate(10.240000000000009,10.240000000000009), scale(0.96)">
<rect x="-51.2" y="-51.2" width="614.40" height="614.40" rx="147.456" fill="#0c4355" strokewidth="0"/>
</g>
<g id="SVGRepo_tracerCarrier" stroke-linecap="round" stroke-linejoin="round" stroke="#CCCCCC" stroke-width="8.192"> <path style="fill:#6bffff;" d="M439.242,482.358H72.758c-23.812,0-43.116-19.304-43.116-43.116V72.758 c0-23.812,19.304-43.116,43.116-43.116h366.484c23.812,0,43.116,19.304,43.116,43.116v366.484 C482.358,463.054,463.054,482.358,439.242,482.358z"/> <path style="fill:#c2c7c4;" d="M503.916,51.2L503.916,51.2c0,11.906-9.651,21.558-21.558,21.558h-64.674 c-11.906,0-21.558-9.651-21.558-21.558h-32.337c-11.906,0-21.558-9.651-21.558-21.558l0,0c0-11.906,9.651-21.558,21.558-21.558 h64.674c11.906,0,21.558,9.651,21.558,21.558l0,0h32.337C494.264,29.642,503.916,39.294,503.916,51.2z"/> <path style="fill:#ffffb3;" d="M191.326,99.705c0,50.601-41.02,91.621-91.621,91.621S8.084,150.306,8.084,99.705 S49.105,8.084,99.705,8.084S191.326,49.105,191.326,99.705z"/> <path style="fill:#fff04d;" d="M148.211,99.705c0,26.789-21.716,48.505-48.505,48.505S51.2,126.494,51.2,99.705 S72.916,51.2,99.705,51.2S148.211,72.916,148.211,99.705z"/> <path style="fill:#6dc700;" d="M493.137,342.232v75.453h-53.895V309.895H460.8C478.66,309.895,493.137,324.372,493.137,342.232z M116.507,148.211L116.507,148.211c-28.365,0-51.358,22.994-51.358,51.358v18.558c-3.648-0.939-7.472-1.438-11.413-1.438l0,0 c-25.213,0-45.652,20.439-45.652,45.652v34.239c0,25.213,20.439,45.652,45.652,45.652l0,0c18.684,0,34.737-11.229,41.803-27.304 c6.405,2.869,13.496,4.478,20.968,4.478l0,0c28.365,0,51.358-22.994,51.358-51.358v-68.479 C167.866,171.204,144.872,148.211,116.507,148.211z"/> <path style="fill:#359103;" d="M503.916,406.905V460.8h-75.453v-86.232h43.116C489.439,374.568,503.916,389.046,503.916,406.905z M40.421,288.337v10.779c0,17.86,14.477,32.337,32.337,32.337H40.421c-17.86,0-32.337,14.477-32.337,32.337v10.779 c0,17.86,14.477,32.337,32.337,32.337h118.568v-75.453V256H72.758C54.898,256,40.421,270.477,40.421,288.337z"/> <path style="fill:#f2eee3;" d="M331.453,169.768c5.953,0,10.779,4.826,10.779,10.779v32.337H234.442v-32.337 c0-5.953,4.826-10.779,10.779-10.779l0,0v-43.116l0,0c6.902-6.902,16.262-10.779,26.023-10.779h34.187 c9.76,0,19.121,3.877,26.023,10.779l0,0V169.768L331.453,169.768z"/> <g> <path style="fill:#f2eee3;" d="M342.232,180.547v53.895H234.442v-53.895c0-5.953,4.826-10.779,10.779-10.779h86.232 C337.406,169.768,342.232,174.594,342.232,180.547z"/> <path style="fill:#f2eee3;" d="M450.021,266.779v204.8H126.653v-204.8H450.021z"/> </g> <path style="fill:#4d4942;" d="M460.8,256v10.779c0,5.953-4.826,10.779-10.779,10.779H126.653c-5.953,0-10.779-4.826-10.779-10.779 V256c0-5.953,4.826-10.779,10.779-10.779h16.168l0,0c3.303-6.606,10.055-10.779,17.44-10.779h18.946 c6.849,0,13.197,3.594,16.72,9.467l0.787,1.312h183.242l0.787-1.312c3.524-5.873,9.871-9.467,16.72-9.467h18.946 c7.386,0,14.138,4.173,17.44,10.779l0,0h16.168C455.974,245.221,460.8,250.047,460.8,256z"/> <path style="fill:#f2eee3;" d="M363.789,223.663v247.916H212.884V223.663c0-5.953,4.826-10.779,10.779-10.779H353.01 C358.964,212.884,363.789,217.71,363.789,223.663z"/> <path style="fill:#4d4942;" d="M320.674,288.337v183.242H256V288.337c0-17.86,14.477-32.337,32.337-32.337l0,0 C306.196,256,320.674,270.477,320.674,288.337z"/> <path style="fill:#999999;" d="M330.544,411.49l19.402,64.674c4.15,13.832-6.208,27.753-20.649,27.753H51.2 c-23.812,0-43.116-19.304-43.116-43.116v-43.116c0-11.906,9.651-21.558,21.558-21.558h280.253 C319.415,396.126,327.808,402.371,330.544,411.49z"/> <path style="fill:#999999;" d="M181.975,450.021h311.162c5.953,0,10.779,4.826,10.779,10.779l0,0 c0,23.812-19.304,43.116-43.116,43.116H156.469c-8.378,0-13.553-9.141-9.243-16.325l16.262-27.104 C167.384,453.994,174.402,450.021,181.975,450.021z"/> <path style="fill:#4e0909;" d="M295.679,34.665l35.773,91.988h-86.232l35.773-91.988c1.178-3.028,4.094-5.023,7.343-5.023 S294.502,31.637,295.679,34.665z M169.768,148.211c-3.925,0-7.31,2.753-8.111,6.596l-18.836,90.415h53.895l-18.836-90.415 C177.079,150.963,173.693,148.211,169.768,148.211z M415.016,154.806c-0.801-3.842-4.187-6.596-8.111-6.596 c-3.925,0-7.31,2.753-8.111,6.596l-18.836,90.415h53.895L415.016,154.806z"/> <path d="M3.53,315.769C1.188,309.645,0,303.188,0,296.579v-34.24c0-29.629,24.106-53.736,53.736-53.736 c1.112,0,2.223,0.033,3.329,0.102v-9.137c0-32.777,26.666-59.443,59.443-59.443c5.301,0,10.562,0.7,15.636,2.08 c4.308,1.173,6.85,5.615,5.678,9.923s-5.618,6.845-9.923,5.679c-3.691-1.005-7.524-1.513-11.392-1.513 c-23.861,0-43.274,19.413-43.274,43.274v18.558c0,2.499-1.156,4.858-3.131,6.39s-4.548,2.061-6.969,1.44 c-3.052-0.786-6.214-1.185-9.398-1.185c-20.713,0-37.566,16.853-37.566,37.568v34.24c0,4.626,0.829,9.139,2.464,13.414 c1.594,4.169-0.494,8.843-4.663,10.438c-0.95,0.363-1.926,0.536-2.887,0.536C7.829,320.968,4.761,318.99,3.53,315.769z M142.756,123.495c4.21,1.489,8.828-0.718,10.317-4.928c2.137-6.048,3.222-12.395,3.222-18.862 c0-31.203-25.385-56.589-56.589-56.589S43.116,68.502,43.116,99.705c0,16.927,7.488,32.828,20.545,43.627 c1.508,1.247,3.333,1.855,5.147,1.855c2.327,0,4.636-0.999,6.235-2.933c2.846-3.44,2.363-8.536-1.078-11.381 c-9.329-7.716-14.68-19.076-14.68-31.167c0-22.289,18.132-40.421,40.421-40.421s40.421,18.132,40.421,40.421 c0,4.627-0.773,9.16-2.298,13.475C136.341,117.389,138.547,122.008,142.756,123.495z M35.454,175.95 c1.518,1.281,3.368,1.906,5.208,1.906c2.3,0,4.584-0.975,6.184-2.872c2.879-3.413,2.446-8.513-0.967-11.391 c-18.883-15.928-29.711-39.214-29.711-63.888c0-46.062,37.475-83.537,83.537-83.537s83.537,37.475,83.537,83.537 c0,3.772-0.253,7.567-0.753,11.277c-0.597,4.425,2.507,8.496,6.932,9.092c4.428,0.596,8.495-2.507,9.092-6.932 s0.898-8.945,0.898-13.437C199.411,44.727,154.683,0,99.705,0S0,44.727,0,99.705C0,129.154,12.923,156.946,35.454,175.95z M363.789,59.284h25.374c3.527,12.428,14.978,21.558,28.521,21.558h33.235c4.465,0,8.084-3.618,8.084-8.084 c0-4.466-3.62-8.084-8.084-8.084h-33.235c-7.43,0-13.474-6.044-13.474-13.474c0-4.466-3.62-8.084-8.084-8.084h-32.337 c-7.43,0-13.474-6.044-13.474-13.474s6.044-13.474,13.474-13.474h64.674c7.43,0,13.474,6.044,13.474,13.474 c0,4.466,3.62,8.084,8.084,8.084h32.337c7.43,0,13.474,6.044,13.474,13.474s-6.044,13.474-13.474,13.474 c-4.465,0-8.084,3.618-8.084,8.084c0,4.466,3.62,8.084,8.084,8.084C498.703,80.842,512,67.544,512,51.2 s-13.297-29.642-29.642-29.642h-25.374C453.457,9.13,442.007,0,428.463,0h-64.674c-16.345,0-29.642,13.298-29.642,29.642 S347.444,59.284,363.789,59.284z M512,460.8c0,28.231-22.969,51.2-51.2,51.2H156.469c-6.886,0-13.022-3.576-16.415-9.57 c-3.392-5.992-3.303-13.093,0.24-18.998l16.262-27.105c5.326-8.876,15.066-14.391,25.418-14.391h84.804 c4.465,0,8.084,3.618,8.084,8.084s-3.62,8.084-8.084,8.084h-84.804c-4.706,0-9.133,2.506-11.554,6.541l-16.262,27.105 c-0.703,1.173-0.323,2.204-0.035,2.714c0.289,0.511,0.978,1.368,2.344,1.368H460.8c19.316,0,35.032-15.715,35.032-35.032 c0-1.486-1.209-2.695-2.695-2.695H342.284c-0.123,0.002-0.247,0.002-0.369,0h-42.8c-4.465,0-8.084-3.618-8.084-8.084 s3.62-8.084,8.084-8.084h32.121l-8.438-28.124c-1.724-5.743-6.909-9.602-12.906-9.602H29.641c-2.305,0-4.475,0.582-6.375,1.605 c-0.135,0.081-0.269,0.157-0.407,0.23c-3.998,2.339-6.69,6.68-6.69,11.638V460.8c0,19.317,15.716,35.032,35.032,35.032h65.306 c4.465,0,8.084,3.618,8.084,8.084s-3.62,8.084-8.084,8.084H51.2C22.969,512,0,489.031,0,460.8v-43.116 c0-7.544,2.833-14.439,7.491-19.677C2.662,391.222,0,383.044,0,374.568v-10.779c0-22.289,18.132-40.421,40.421-40.421h0.019 c-5.086-6.759-8.104-15.161-8.104-24.253v-10.779c0-22.289,18.132-40.421,40.421-40.421h15.629c4.465,0,8.084,3.618,8.084,8.084 s-3.618,8.084-8.084,8.084H72.758c-13.373,0-24.253,10.88-24.253,24.253v10.779c0,13.372,10.879,24.253,24.253,24.253 c4.465,0,8.084,3.618,8.084,8.084c0,4.466-3.62,8.084-8.084,8.084H40.421c-13.373,0-24.253,10.88-24.253,24.253v10.779 c0,5.359,1.774,10.52,4.976,14.714c2.693-0.807,5.546-1.241,8.498-1.241h88.926V283.822c-6.368-3.032-10.779-9.532-10.779-17.043 V256c0-10.401,8.463-18.863,18.863-18.863h9.594l17.495-83.98c0.98-4.704,3.966-8.604,7.941-10.876v-15.628 c0-4.466,3.62-8.084,8.084-8.084c4.465,0,8.084,3.618,8.084,8.084v15.628c3.975,2.271,6.961,6.172,7.941,10.875l17.497,83.981h1.51 v-13.474c0-10.401,8.463-18.863,18.863-18.863h2.695v-24.253c0-7.511,4.411-14.009,10.779-17.043v-36.67 c-0.013-0.551,0.031-1.106,0.135-1.661c0.105-0.565,0.267-1.108,0.482-1.625l35.705-91.815c1.344-3.456,3.763-6.229,6.793-8.002 V8.084c0-4.466,3.62-8.084,8.084-8.084c4.465,0,8.084,3.618,8.084,8.084v15.649c3.031,1.773,5.449,4.547,6.793,8.003l35.773,91.986 c0.363,0.935,0.55,1.928,0.55,2.931v36.852c6.368,3.032,10.779,9.532,10.779,17.043V204.8h2.695 c10.401,0,18.863,8.463,18.863,18.863v13.474h1.51l17.496-83.98c0.98-4.704,3.965-8.604,7.941-10.876v-15.628 c0-4.466,3.62-8.084,8.084-8.084c4.465,0,8.084,3.618,8.084,8.084v15.628c3.975,2.271,6.961,6.172,7.941,10.875l17.497,83.981h9.594 c10.401,0,18.863,8.463,18.863,18.863v10.779c0,7.511-4.411,14.009-10.779,17.043v17.989h2.695 c22.289,0,40.421,18.132,40.421,40.421v11.857c0,4.466-3.62,8.084-8.084,8.084c-4.465,0-8.084-3.618-8.084-8.084v-11.857 c0-13.372-10.879-24.253-24.253-24.253h-2.695v123.958h35.032C503.537,441.937,512,450.399,512,460.8z M204.8,285.642h-70.063v102.4 H204.8V285.642z M204.8,253.305h-8.084c-3.83,0-7.133-2.686-7.914-6.436l-18.836-90.416c-0.039-0.183-0.355-0.184-0.393,0.001 l-16.809,80.683h8.382c4.465,0,8.084,3.618,8.084,8.084c0,4.466-3.62,8.084-8.084,8.084h-18.154c-0.109,0.002-0.217,0.002-0.324,0 h-16.014c-1.485,0-2.695,1.208-2.695,2.695v10.779c0,1.486,1.209,2.695,2.695,2.695H204.8V253.305z M242.526,204.8h91.621v-24.253 c0-1.486-1.209-2.695-2.695-2.695c-4.465,0-8.084-3.618-8.084-8.084v-41.599l-35.032-90.081l-31.298,80.48h42.077 c4.465,0,8.084,3.618,8.084,8.084c0,4.466-3.62,8.084-8.084,8.084h-45.811v26.947h45.811c4.465,0,8.084,3.618,8.084,8.084 c0,4.466-3.62,8.084-8.084,8.084h-53.895c-1.485,0-2.695,1.208-2.695,2.695V204.8z M355.705,223.663 c0-1.486-1.209-2.695-2.695-2.695H223.663c-1.485,0-2.695,1.208-2.695,2.695v164.379h26.947v-99.705 c0-22.289,18.132-40.421,40.421-40.421s40.421,18.132,40.421,40.421v84.435c0,4.466-3.62,8.084-8.084,8.084 s-8.084-3.618-8.084-8.084v-84.435c0-13.372-10.879-24.253-24.253-24.253c-13.373,0-24.253,10.88-24.253,24.253v99.705h45.811 c13.191,0,24.602,8.49,28.392,21.125l9.831,32.77h7.587V223.663z M441.937,285.642h-70.063v156.295h70.063V285.642z M452.716,256 c0-1.486-1.209-2.695-2.695-2.695h-16.168c-3.83,0-7.134-2.686-7.914-6.436l-18.836-90.416c-0.039-0.182-0.354-0.185-0.393,0 L389.9,237.137h20.777c4.465,0,8.084,3.618,8.084,8.084c0,4.466-3.62,8.084-8.084,8.084h-30.55c-0.11,0.002-0.218,0.002-0.326,0 h-7.929v16.168h78.147c1.485,0,2.695-1.208,2.695-2.695V256z M471.579,366.484c-4.465,0-8.084,3.618-8.084,8.084 c0,4.466,3.62,8.084,8.084,8.084c13.373,0,24.253,10.88,24.253,24.253v21.558c0,4.466,3.62,8.084,8.084,8.084 s8.084-3.618,8.084-8.084v-21.558C512,384.617,493.868,366.484,471.579,366.484z M169.768,361.095c4.465,0,8.084-3.618,8.084-8.084 v-43.116c0-4.466-3.62-8.084-8.084-8.084c-4.465,0-8.084,3.618-8.084,8.084v43.116C161.684,357.476,165.304,361.095,169.768,361.095 z M406.905,414.989c4.465,0,8.084-3.618,8.084-8.084v-97.011c0-4.466-3.62-8.084-8.084-8.084s-8.084,3.618-8.084,8.084v97.011 C398.821,411.371,402.441,414.989,406.905,414.989z"/> </g>
<g id="SVGRepo_iconCarrier"> <path style="fill:#6bffff;" d="M439.242,482.358H72.758c-23.812,0-43.116-19.304-43.116-43.116V72.758 c0-23.812,19.304-43.116,43.116-43.116h366.484c23.812,0,43.116,19.304,43.116,43.116v366.484 C482.358,463.054,463.054,482.358,439.242,482.358z"/> <path style="fill:#c2c7c4;" d="M503.916,51.2L503.916,51.2c0,11.906-9.651,21.558-21.558,21.558h-64.674 c-11.906,0-21.558-9.651-21.558-21.558h-32.337c-11.906,0-21.558-9.651-21.558-21.558l0,0c0-11.906,9.651-21.558,21.558-21.558 h64.674c11.906,0,21.558,9.651,21.558,21.558l0,0h32.337C494.264,29.642,503.916,39.294,503.916,51.2z"/> <path style="fill:#ffffb3;" d="M191.326,99.705c0,50.601-41.02,91.621-91.621,91.621S8.084,150.306,8.084,99.705 S49.105,8.084,99.705,8.084S191.326,49.105,191.326,99.705z"/> <path style="fill:#fff04d;" d="M148.211,99.705c0,26.789-21.716,48.505-48.505,48.505S51.2,126.494,51.2,99.705 S72.916,51.2,99.705,51.2S148.211,72.916,148.211,99.705z"/> <path style="fill:#6dc700;" d="M493.137,342.232v75.453h-53.895V309.895H460.8C478.66,309.895,493.137,324.372,493.137,342.232z M116.507,148.211L116.507,148.211c-28.365,0-51.358,22.994-51.358,51.358v18.558c-3.648-0.939-7.472-1.438-11.413-1.438l0,0 c-25.213,0-45.652,20.439-45.652,45.652v34.239c0,25.213,20.439,45.652,45.652,45.652l0,0c18.684,0,34.737-11.229,41.803-27.304 c6.405,2.869,13.496,4.478,20.968,4.478l0,0c28.365,0,51.358-22.994,51.358-51.358v-68.479 C167.866,171.204,144.872,148.211,116.507,148.211z"/> <path style="fill:#359103;" d="M503.916,406.905V460.8h-75.453v-86.232h43.116C489.439,374.568,503.916,389.046,503.916,406.905z M40.421,288.337v10.779c0,17.86,14.477,32.337,32.337,32.337H40.421c-17.86,0-32.337,14.477-32.337,32.337v10.779 c0,17.86,14.477,32.337,32.337,32.337h118.568v-75.453V256H72.758C54.898,256,40.421,270.477,40.421,288.337z"/> <path style="fill:#f2eee3;" d="M331.453,169.768c5.953,0,10.779,4.826,10.779,10.779v32.337H234.442v-32.337 c0-5.953,4.826-10.779,10.779-10.779l0,0v-43.116l0,0c6.902-6.902,16.262-10.779,26.023-10.779h34.187 c9.76,0,19.121,3.877,26.023,10.779l0,0V169.768L331.453,169.768z"/> <g> <path style="fill:#f2eee3;" d="M342.232,180.547v53.895H234.442v-53.895c0-5.953,4.826-10.779,10.779-10.779h86.232 C337.406,169.768,342.232,174.594,342.232,180.547z"/> <path style="fill:#f2eee3;" d="M450.021,266.779v204.8H126.653v-204.8H450.021z"/> </g> <path style="fill:#4d4942;" d="M460.8,256v10.779c0,5.953-4.826,10.779-10.779,10.779H126.653c-5.953,0-10.779-4.826-10.779-10.779 V256c0-5.953,4.826-10.779,10.779-10.779h16.168l0,0c3.303-6.606,10.055-10.779,17.44-10.779h18.946 c6.849,0,13.197,3.594,16.72,9.467l0.787,1.312h183.242l0.787-1.312c3.524-5.873,9.871-9.467,16.72-9.467h18.946 c7.386,0,14.138,4.173,17.44,10.779l0,0h16.168C455.974,245.221,460.8,250.047,460.8,256z"/> <path style="fill:#f2eee3;" d="M363.789,223.663v247.916H212.884V223.663c0-5.953,4.826-10.779,10.779-10.779H353.01 C358.964,212.884,363.789,217.71,363.789,223.663z"/> <path style="fill:#4d4942;" d="M320.674,288.337v183.242H256V288.337c0-17.86,14.477-32.337,32.337-32.337l0,0 C306.196,256,320.674,270.477,320.674,288.337z"/> <path style="fill:#999999;" d="M330.544,411.49l19.402,64.674c4.15,13.832-6.208,27.753-20.649,27.753H51.2 c-23.812,0-43.116-19.304-43.116-43.116v-43.116c0-11.906,9.651-21.558,21.558-21.558h280.253 C319.415,396.126,327.808,402.371,330.544,411.49z"/> <path style="fill:#999999;" d="M181.975,450.021h311.162c5.953,0,10.779,4.826,10.779,10.779l0,0 c0,23.812-19.304,43.116-43.116,43.116H156.469c-8.378,0-13.553-9.141-9.243-16.325l16.262-27.104 C167.384,453.994,174.402,450.021,181.975,450.021z"/> <path style="fill:#4e0909;" d="M295.679,34.665l35.773,91.988h-86.232l35.773-91.988c1.178-3.028,4.094-5.023,7.343-5.023 S294.502,31.637,295.679,34.665z M169.768,148.211c-3.925,0-7.31,2.753-8.111,6.596l-18.836,90.415h53.895l-18.836-90.415 C177.079,150.963,173.693,148.211,169.768,148.211z M415.016,154.806c-0.801-3.842-4.187-6.596-8.111-6.596 c-3.925,0-7.31,2.753-8.111,6.596l-18.836,90.415h53.895L415.016,154.806z"/> <path d="M3.53,315.769C1.188,309.645,0,303.188,0,296.579v-34.24c0-29.629,24.106-53.736,53.736-53.736 c1.112,0,2.223,0.033,3.329,0.102v-9.137c0-32.777,26.666-59.443,59.443-59.443c5.301,0,10.562,0.7,15.636,2.08 c4.308,1.173,6.85,5.615,5.678,9.923s-5.618,6.845-9.923,5.679c-3.691-1.005-7.524-1.513-11.392-1.513 c-23.861,0-43.274,19.413-43.274,43.274v18.558c0,2.499-1.156,4.858-3.131,6.39s-4.548,2.061-6.969,1.44 c-3.052-0.786-6.214-1.185-9.398-1.185c-20.713,0-37.566,16.853-37.566,37.568v34.24c0,4.626,0.829,9.139,2.464,13.414 c1.594,4.169-0.494,8.843-4.663,10.438c-0.95,0.363-1.926,0.536-2.887,0.536C7.829,320.968,4.761,318.99,3.53,315.769z M142.756,123.495c4.21,1.489,8.828-0.718,10.317-4.928c2.137-6.048,3.222-12.395,3.222-18.862 c0-31.203-25.385-56.589-56.589-56.589S43.116,68.502,43.116,99.705c0,16.927,7.488,32.828,20.545,43.627 c1.508,1.247,3.333,1.855,5.147,1.855c2.327,0,4.636-0.999,6.235-2.933c2.846-3.44,2.363-8.536-1.078-11.381 c-9.329-7.716-14.68-19.076-14.68-31.167c0-22.289,18.132-40.421,40.421-40.421s40.421,18.132,40.421,40.421 c0,4.627-0.773,9.16-2.298,13.475C136.341,117.389,138.547,122.008,142.756,123.495z M35.454,175.95 c1.518,1.281,3.368,1.906,5.208,1.906c2.3,0,4.584-0.975,6.184-2.872c2.879-3.413,2.446-8.513-0.967-11.391 c-18.883-15.928-29.711-39.214-29.711-63.888c0-46.062,37.475-83.537,83.537-83.537s83.537,37.475,83.537,83.537 c0,3.772-0.253,7.567-0.753,11.277c-0.597,4.425,2.507,8.496,6.932,9.092c4.428,0.596,8.495-2.507,9.092-6.932 s0.898-8.945,0.898-13.437C199.411,44.727,154.683,0,99.705,0S0,44.727,0,99.705C0,129.154,12.923,156.946,35.454,175.95z M363.789,59.284h25.374c3.527,12.428,14.978,21.558,28.521,21.558h33.235c4.465,0,8.084-3.618,8.084-8.084 c0-4.466-3.62-8.084-8.084-8.084h-33.235c-7.43,0-13.474-6.044-13.474-13.474c0-4.466-3.62-8.084-8.084-8.084h-32.337 c-7.43,0-13.474-6.044-13.474-13.474s6.044-13.474,13.474-13.474h64.674c7.43,0,13.474,6.044,13.474,13.474 c0,4.466,3.62,8.084,8.084,8.084h32.337c7.43,0,13.474,6.044,13.474,13.474s-6.044,13.474-13.474,13.474 c-4.465,0-8.084,3.618-8.084,8.084c0,4.466,3.62,8.084,8.084,8.084C498.703,80.842,512,67.544,512,51.2 s-13.297-29.642-29.642-29.642h-25.374C453.457,9.13,442.007,0,428.463,0h-64.674c-16.345,0-29.642,13.298-29.642,29.642 S347.444,59.284,363.789,59.284z M512,460.8c0,28.231-22.969,51.2-51.2,51.2H156.469c-6.886,0-13.022-3.576-16.415-9.57 c-3.392-5.992-3.303-13.093,0.24-18.998l16.262-27.105c5.326-8.876,15.066-14.391,25.418-14.391h84.804 c4.465,0,8.084,3.618,8.084,8.084s-3.62,8.084-8.084,8.084h-84.804c-4.706,0-9.133,2.506-11.554,6.541l-16.262,27.105 c-0.703,1.173-0.323,2.204-0.035,2.714c0.289,0.511,0.978,1.368,2.344,1.368H460.8c19.316,0,35.032-15.715,35.032-35.032 c0-1.486-1.209-2.695-2.695-2.695H342.284c-0.123,0.002-0.247,0.002-0.369,0h-42.8c-4.465,0-8.084-3.618-8.084-8.084 s3.62-8.084,8.084-8.084h32.121l-8.438-28.124c-1.724-5.743-6.909-9.602-12.906-9.602H29.641c-2.305,0-4.475,0.582-6.375,1.605 c-0.135,0.081-0.269,0.157-0.407,0.23c-3.998,2.339-6.69,6.68-6.69,11.638V460.8c0,19.317,15.716,35.032,35.032,35.032h65.306 c4.465,0,8.084,3.618,8.084,8.084s-3.62,8.084-8.084,8.084H51.2C22.969,512,0,489.031,0,460.8v-43.116 c0-7.544,2.833-14.439,7.491-19.677C2.662,391.222,0,383.044,0,374.568v-10.779c0-22.289,18.132-40.421,40.421-40.421h0.019 c-5.086-6.759-8.104-15.161-8.104-24.253v-10.779c0-22.289,18.132-40.421,40.421-40.421h15.629c4.465,0,8.084,3.618,8.084,8.084 s-3.618,8.084-8.084,8.084H72.758c-13.373,0-24.253,10.88-24.253,24.253v10.779c0,13.372,10.879,24.253,24.253,24.253 c4.465,0,8.084,3.618,8.084,8.084c0,4.466-3.62,8.084-8.084,8.084H40.421c-13.373,0-24.253,10.88-24.253,24.253v10.779 c0,5.359,1.774,10.52,4.976,14.714c2.693-0.807,5.546-1.241,8.498-1.241h88.926V283.822c-6.368-3.032-10.779-9.532-10.779-17.043 V256c0-10.401,8.463-18.863,18.863-18.863h9.594l17.495-83.98c0.98-4.704,3.966-8.604,7.941-10.876v-15.628 c0-4.466,3.62-8.084,8.084-8.084c4.465,0,8.084,3.618,8.084,8.084v15.628c3.975,2.271,6.961,6.172,7.941,10.875l17.497,83.981h1.51 v-13.474c0-10.401,8.463-18.863,18.863-18.863h2.695v-24.253c0-7.511,4.411-14.009,10.779-17.043v-36.67 c-0.013-0.551,0.031-1.106,0.135-1.661c0.105-0.565,0.267-1.108,0.482-1.625l35.705-91.815c1.344-3.456,3.763-6.229,6.793-8.002 V8.084c0-4.466,3.62-8.084,8.084-8.084c4.465,0,8.084,3.618,8.084,8.084v15.649c3.031,1.773,5.449,4.547,6.793,8.003l35.773,91.986 c0.363,0.935,0.55,1.928,0.55,2.931v36.852c6.368,3.032,10.779,9.532,10.779,17.043V204.8h2.695 c10.401,0,18.863,8.463,18.863,18.863v13.474h1.51l17.496-83.98c0.98-4.704,3.965-8.604,7.941-10.876v-15.628 c0-4.466,3.62-8.084,8.084-8.084c4.465,0,8.084,3.618,8.084,8.084v15.628c3.975,2.271,6.961,6.172,7.941,10.875l17.497,83.981h9.594 c10.401,0,18.863,8.463,18.863,18.863v10.779c0,7.511-4.411,14.009-10.779,17.043v17.989h2.695 c22.289,0,40.421,18.132,40.421,40.421v11.857c0,4.466-3.62,8.084-8.084,8.084c-4.465,0-8.084-3.618-8.084-8.084v-11.857 c0-13.372-10.879-24.253-24.253-24.253h-2.695v123.958h35.032C503.537,441.937,512,450.399,512,460.8z M204.8,285.642h-70.063v102.4 H204.8V285.642z M204.8,253.305h-8.084c-3.83,0-7.133-2.686-7.914-6.436l-18.836-90.416c-0.039-0.183-0.355-0.184-0.393,0.001 l-16.809,80.683h8.382c4.465,0,8.084,3.618,8.084,8.084c0,4.466-3.62,8.084-8.084,8.084h-18.154c-0.109,0.002-0.217,0.002-0.324,0 h-16.014c-1.485,0-2.695,1.208-2.695,2.695v10.779c0,1.486,1.209,2.695,2.695,2.695H204.8V253.305z M242.526,204.8h91.621v-24.253 c0-1.486-1.209-2.695-2.695-2.695c-4.465,0-8.084-3.618-8.084-8.084v-41.599l-35.032-90.081l-31.298,80.48h42.077 c4.465,0,8.084,3.618,8.084,8.084c0,4.466-3.62,8.084-8.084,8.084h-45.811v26.947h45.811c4.465,0,8.084,3.618,8.084,8.084 c0,4.466-3.62,8.084-8.084,8.084h-53.895c-1.485,0-2.695,1.208-2.695,2.695V204.8z M355.705,223.663 c0-1.486-1.209-2.695-2.695-2.695H223.663c-1.485,0-2.695,1.208-2.695,2.695v164.379h26.947v-99.705 c0-22.289,18.132-40.421,40.421-40.421s40.421,18.132,40.421,40.421v84.435c0,4.466-3.62,8.084-8.084,8.084 s-8.084-3.618-8.084-8.084v-84.435c0-13.372-10.879-24.253-24.253-24.253c-13.373,0-24.253,10.88-24.253,24.253v99.705h45.811 c13.191,0,24.602,8.49,28.392,21.125l9.831,32.77h7.587V223.663z M441.937,285.642h-70.063v156.295h70.063V285.642z M452.716,256 c0-1.486-1.209-2.695-2.695-2.695h-16.168c-3.83,0-7.134-2.686-7.914-6.436l-18.836-90.416c-0.039-0.182-0.354-0.185-0.393,0 L389.9,237.137h20.777c4.465,0,8.084,3.618,8.084,8.084c0,4.466-3.62,8.084-8.084,8.084h-30.55c-0.11,0.002-0.218,0.002-0.326,0 h-7.929v16.168h78.147c1.485,0,2.695-1.208,2.695-2.695V256z M471.579,366.484c-4.465,0-8.084,3.618-8.084,8.084 c0,4.466,3.62,8.084,8.084,8.084c13.373,0,24.253,10.88,24.253,24.253v21.558c0,4.466,3.62,8.084,8.084,8.084 s8.084-3.618,8.084-8.084v-21.558C512,384.617,493.868,366.484,471.579,366.484z M169.768,361.095c4.465,0,8.084-3.618,8.084-8.084 v-43.116c0-4.466-3.62-8.084-8.084-8.084c-4.465,0-8.084,3.618-8.084,8.084v43.116C161.684,357.476,165.304,361.095,169.768,361.095 z M406.905,414.989c4.465,0,8.084-3.618,8.084-8.084v-97.011c0-4.466-3.62-8.084-8.084-8.084s-8.084,3.618-8.084,8.084v97.011 C398.821,411.371,402.441,414.989,406.905,414.989z"/> </g>
</svg>